# xmcd
#
# Track frame offsets: 
#        150
#        11715
#        25442
#        42792
#        55400
#        68277
#        84315
#        99632
#        114352
#        132980
#        146225
#        167905
#        188177
#        203505
#        215715
#        227753
#        240883
#        250533
#        259238
#        276748
#        292670
#        301097
#        315389
#        328964
#        338347
#
# Disc length: 4713 seconds
#
# Revision: 0
# Processed by: cddbd v1.4PL0 Copyright (c) Steve Scherf et al.
# Submitted via: ExactAudioCopy v0.95a3
#
DISCID=5f126719
DTITLE=Magic Sam - The Magic Sam Legacy and The Late Great Magic Sam
DYEAR=1900
DGENRE=Blues
TTITLE0=I Feel So Good
TTITLE1=Lookin' Good
TTITLE2=Walkin' By Myself
TTITLE3=Hoochie Coochie Man
TTITLE4=That Ain't It
TTITLE5=That's All I Need
TTITLE6=What Have I Done Wrong
TTITLE7=I Just Want A Little Bit
TTITLE8=Everything's Gonna Be All Right
TTITLE9=Keep On Doin' What You're Doin'
TTITLE10=Blues For Odie Payne
TTITLE11=Easy Baby
TTITLE12=Keep On Lovin' Me Baby
TTITLE13=High Heel Sneakers
TTITLE14=All Your Love
TTITLE15=Trying To Make It
TTITLE16=Call Me If You Need Me
TTITLE17=Look Out Sam
TTITLE18=Torturing My Soul
TTITLE19=Sometimes
TTITLE20=Back Door Friend
TTITLE21=Feeling Good
TTITLE22=All Your Fault
TTITLE23=Looking Good
TTITLE24=Easy Baby
EXTD=Two albums combined\n\nThe Magic Sam Legacy - Tracks 01 to 13\n\n
EXTD=The Late Great Magic Sam - Tracks 14 to 25\n\n\n
EXTT0=
EXTT1=
EXTT2=
EXTT3=
EXTT4=
EXTT5=
EXTT6=
EXTT7=
EXTT8=
EXTT9=
EXTT10=
EXTT11=
EXTT12=
EXTT13=
EXTT14=
EXTT15=
EXTT16=
EXTT17=
EXTT18=
EXTT19=
EXTT20=
EXTT21=
EXTT22=
EXTT23=
EXTT24=
PLAYORDER=
